# xmcd
#
# Track frame offsets: 
#        150
#        8454
#        18387
#        28062
#        41536
#        50770
#        66291
#        76195
#        90678
#        105228
#        117607
#        129580
#        141235
#        152832
#        172480
#        184012
#        204748
#        217044
#        230018
#        246698
#        261137
#
# Disc length: 3770 seconds
#
# Revision: 2
# Processed by: cddbd v1.5.2PL0 Copyright (c) Steve Scherf et al.
# Submitted via: ExactAudioCopyFreeDBPlugin 1.0
#
DISCID=360eb815
DTITLE=Various Artist - Country Music: A Film by Ken Burns [CD 3]
DYEAR=2019
DGENRE=Country
TTITLE0=Roger Miller - Dang Me
TTITLE1=Buck Owens - I've Got A Tiger By The Tail
TTITLE2=Loretta Lynn - Don't Come Home A' Drinkin' (With Lovin' On You
TTITLE2=r Mind)
TTITLE3=Loretta Lynn - Coal Miner's Daughter
TTITLE4=Charley Pride - Kiss An Angel Good Mornin'
TTITLE5=Merle Haggard and The Strangers - Hungry Eyes
TTITLE6=Merle Haggard and The Strangers - Mama Tried
TTITLE7=Jeannie C. Riley - Harper Valley P.T.A.
TTITLE8=Jeannie Seely - Don't Touch Me
TTITLE9=Johnny Cash - Folsom Prison Blues
TTITLE10=Tammy Wynette - Stand By Your Man
TTITLE11=George Jones - She Thinks I Still Care
TTITLE12=The Byrds - You Ain't Goin' Nowhere
TTITLE13=Kris Kristofferson - Me And Bobby McGee
TTITLE14=Sammi Smith - Help Me Make It Through The Night
TTITLE15=Kris Kristofferson - Sunday Morning Coming Down
TTITLE16=Merle Haggard - Okie From Muskogee
TTITLE17=Johnny Cash - Man In Black
TTITLE18=Bob Dylan and Johnny Cash - Girl From The North Country
TTITLE19=The Nitty Gritty Dirt Band - Grand Ole Opry Song
TTITLE20=The Nitty Gritty Dirt Band - Will The Circle Be Unbroken
EXTD=YEAR: 2019
EXTT0=
EXTT1=
EXTT2=
EXTT3=
EXTT4=
EXTT5=
EXTT6=
EXTT7=
EXTT8=
EXTT9=
EXTT10=
EXTT11=
EXTT12=
EXTT13=
EXTT14=
EXTT15=
EXTT16=
EXTT17=
EXTT18=
EXTT19=
EXTT20=
PLAYORDER=
